<svg xmlns="http://www.w3.org/2000/svg" fill="none" viewBox="0 0 3292 1428"><path fill="#2d2825" d="M204 571h119v407h2v41h364q3 1 5-3 3-5 2-11v-21l-5-2v-4h41v-40h2v8l2-1q4-3 8-2h12c7 1 7 1 14-3l2-2 2-2q5-8 3-16l-1-5v-68c-1-20-1-20 2-25l8-3 1-1h13l6 2 1 10v10l1 5 1 9v9l-1 155v7c0 23 0 23-3 32l7 2v2H121v-2h4v-15q-1-10 5-18 12-5 26-5l-35-1v-1h83zm40 40v42h40v-42z"/><path fill="#645136" d="M1585 42h324v161h-38v123h-1v-41h-41V163h-39v-2h39v-40h-244v-2h-38l-6 1v419l1 30h-76l1-37v-76l-1-46v-15l-2-228h-2v-46h-283v164h-2v-3l-1-23v-38l-1-16h-38V82h2v121h22v-2l-18-2v-41l-1-19v-37l-1-18 92 1h8l5 2 5-1 30-1h42l168 2h45l6-1 12-1h73v-2l-42-1zm262 40 2 4 18-2-2 4v109h-14c-11 1-11 1-21 6h39V82z"/><path fill="#170f0d" d="M1218 121h203v857h-161v-40h81V203h-81v82h-2v-82h-40v163h-39v-1h38v-80h-38V161h39z"/><path fill="#504532" d="M1831 408h86l-3 1 4 4 2-1 7-2v4h12q8 1 13-5l3 1 24 1h25l29 1h49l21 1h29l35-1h186v2l1 43v69l1 4h-36v-40h-1v-2h-40v-40h-286v40h-40v286h204v-40h40v122h-40v42h-1v-84h-203v84h-77V688l1-31-1-4-1-21v-33l-1-17v-72h-2v-62h-40z"/><path fill="#040406" d="M1748 490h80v391l1 116v164l-2 14h-4v16h5c-1 18-1 18-6 24l-4 3-5 3h-25v3h-40v40h-42v121h-38v-161h38v-43h-446v-40h486v42h42v-42h-40l-1-25v-7l-1-8h2v-36l3-2q3-8 2-17l-1-2 1-8v-12q0-4-2-4-4-3-4-7l1-4v-29h42V530h-42z"/><path fill="#4f4634" d="M403 84v21l-1 2q0 5-2 9-3 3-8 1h-10l-2-1q-9 0-17 5l-11 1h-8l-20-1v67l1 6 1 12v84l-1 104v584h-2V571H204V121h-41l-3-2v-2h-35v-13q0-10 6-18l8-1h49l154 2h2l27-2q16-2 32-1"/><path fill="#4e4532" d="M2599 84v34h-12l-25 1v86h41v40h2l2 2q4 4 11 3l15-3v-2h12l1 84c10 3 15 3 25 1h2l6-1q3 2 2 7v2l1 3v3l1 24h2v40h39v42a561 561 0 0 0 78 4v24l3 9 1-79h2v80h37v-80h2v82h-41v81h-119v-83h-42v-40h-42v-82h-39v-39h-44l2-1v-81h-42v-42h-39v42h-2v-84h-40v-40h-36V88q5-3 10-3h11c9 0 9 0 14 2h20l5-1 10-1h76l14 2h33l9-1 5-1h18l4-1z"/><path fill="#050507" d="M1993 530h283v81h42v81h-42v246h83v40h-83v39l-7 2h-33v122h-43v-124h-37v-39h80V651h-81v-40h81v-42h-204v125h81v38h-120z"/><path fill="#2e2924" d="M1952 898v366h30l6 4q12 2 24 1h9l5-1h197l28 1h47l21-1v-4h2v-34l15-2h4l19-2v-2h4l-2-77 34-2v113l1 2v2l3 2v40h-605c0-26 0-26 4-34l25-1h12q8 0 14-5h22v-34l3-2v-56l1-27V950l1-45 1-2c6-25 50-5 75-5"/><path fill="#2d2a24" d="m2887 611 1 40h40v2h-83v2l11 1h2l6 1h16v12h2l2 38h2v26h42v41h39v82h42v42h40v80h39v41h34v2h44l-1 20 1 16-274 2-1-24v-3l3-6 7-3h2l11-2-28-1v-1l46-1 1-11v-9l-1-30v-19l-2-10-1 78h-1V896h-17c-15-1-15-1-19-3l-1-7-1-2v-28h-4v-42h-40v-40h-33q-4-8-4-17v-45q0-8-4-14v-5h-40v-42h121z"/><path fill="#2a1b14" d="M1589 121h201v42h39v122h-39v-82h-44l2-1v-41h-123v817h-40V350h2l1-14v-2l1-7V190l1-24-1-9 1-12q2-4-1-7z"/><path fill="#2e2924" d="M1462 651h81v2l-6 1 1 2q3 8 2 15v185l1 27v27l1 38h2v30h39v41h84v42h-328v-42h84v-2h2v-23q0-6 3-11c10-6 23-3 34-3z"/><path fill="#040406" d="M407 203h79v40h-40v411h42v118h-40v2h-2v164h203v40H407zm-326 0h80v775H81v39H40v122l-40 2V978h42v-40h79V245H81z"/><path fill="#060608" d="M1625 161h123v41h-83v164h2v2h39v80h-39v490h79v40h-121z"/><path fill="#040406" d="M732 653h40v40h81v-40h40v121h284v40H893v327h-40V733h-81v41h-40z"/><path fill="#2a1b14" d="M510 121h18v40h-40v41h42v1h-42v42h-42v-2h40v-40h-79v775h-40l3-8v-10l-1-23c-1-24-1-24 1-36v-38l-1-33v-37l1-159V401l-1-28V228l1-6v-10l-2-14h-2v-37h44l1-32 15-4 3-1 2 1q8 3 17 2h2a406 406 0 0 0 60-4z"/><path fill="#2c1f18" d="M812 1061h41v122H40v-42H8v-1l32-1v-38h5v2l2 2 12 1 23-2 7-1v-2h723zm-770 80v40h809v-40z"/><path fill="#2b1e17" d="M2439 1264v121h39v1h-770v39h731v2h-733v-41l-2-1h2v-41h693v-76l5 1c12 1 24-5 35-5"/><path fill="#9f743d" d="M1544 121h41v817h-41z"/><path fill="#050507" d="M1097 0h812v40h-812z"/><path fill="#040306" d="M42 1141h809v40H42z"/><path fill="#060608" d="M1994 898h160l1 62v18h-42v-40h-81v245h204v-42h81v42h-41v39h-282z"/><path fill="#504532" d="M824 85h7l18 1v2l1 10v3l2 20 9 2 1 3h7l3 1 7-1 10 2 4-7h42v40h-42v84h2v4l37 1v3l-1 63v4l1 3 3 2v2h39v121h40v42h-79v-84h-40v-79h-42V203h-39v82h-2v-82h-38v-43c1-26 1-26 4-33l34-2v-4h3v-2l3-6-3-2c2-25 2-25 9-26m33 238-1 3h35v-3q-17-6-34 0"/><path fill="#040406" d="M1708 1386h731v39h-731z"/><path fill="#734b33" d="M81 1061h44l2 3h17c8 0 8 0 15-2l15-1h638v40H81z"/><path fill="#714d33" d="M1788 1264h2v40h609v40h-652l1-38h40z"/><path fill="#18110e" d="M3212 980h78v161h-38v38l-2 2v-40h-444v-40h398v2l11 1 3 1h3l3 1h6l2-3 3 1 7 1 6 1 2-5h2v-84h-40z"/><path fill="#a4773f" d="M331 204h33v83l-1 41v3l-1 360v62l-1 175c0 40 0 40-4 48q-4 3-8 2h-22l2-142V225h-3v-18q0-4 5-3"/><path fill="#040405" d="M1950 163h40v164h409v38h-449z"/><path fill="#754d33" d="M1667 1017h81v84h-478l-8-1v-39h405zm39 2v42h40v-42z"/><path fill="#2b1e17" d="M1258 1101h483q6 0 7 2v80h-2v-42h-486v40h446v2h-448z"/><path fill="#724b31" d="M2276 1017v44h43v-42 42h326v40h-206v40h-40v-40h-40v80h-1l-1-80h-121v-82z"/><path fill="#92693b" d="M2040 814h73v42h-121v368h-40V856h2v-2l2-25v-6q-1-4 2-4l14-2h3l65-1zm-56 42 1 2v363l6 1V856z"/><path fill="#040406" d="M42 1h485v39H43zm932 204h40v80h2v2h40v79h121v40l-49 2h-33v80h-37v-80h-42v-81h-42z"/><path fill="#030406" d="M2806 1141h444v40h-444z"/><path fill="#a2783f" d="m2176 370 1 4h2q12-3 23-3h24l171-1-2 80c-2 11-2 11-1 21q3 14 2 30v17l1 7v86h-38v40h-2v-80h-38v80h-1v-82h39V408h-202v-2h43v-2l-26-1-13-1v-28l10-1z"/><path fill="#070507" d="M2685 735h39v39h42v40l38 2v39h-40v-41h-79v42h-40v82h-44v40h-39v-40h2v-40h39v-42h40l1-34v-15l1-11v-22h40z"/><path fill="#060507" d="M2278 0h407v40h-407z"/><path fill="#030406" d="M2441 1141h204v40h-167v204h-39v-209z"/><path fill="#b08445" d="M164 530h38v408h-38z"/><path fill="#2e2825" d="M2476 942v24l-1 6 2 1 2 2v3h43v43h36v17l-2 21h6v2h-241v-40l21 1h47l12-2 3-23v-6l3-7 22-2 13-2q6-18 4-36l16-2z"/><path fill="#d6b265" d="M2154 368v40h-407v-38l50 1h12l111 1h210l17 2 5 1z"/><path fill="#d7b166" d="M1423 203h39v368h-39z"/><path fill="#d7b269" d="M1871 488v368h-40V491c1-13 27-3 40-3"/><path fill="#744c32" d="M2847 1061h365v40h-365z"/><path fill="#a17941" d="m2889 44 278 2-1 6-1 8v20l5 1v1h-41v26q0 5-4 7-9 4-18 3-8 0-15 3h-3V82h-160v39h-1V88h-2l-2 10v6l-1 4v7l-24 3-3 1h-47V82h40z"/><path fill="#2c2723" d="M935 490h79v81h42v83h39c-1 30-1 30-6 35h-15l-6 2q-6 3-12 2h-80v-40h40v-42h-40v-40h-2v-41h-39z"/><path fill="#a77a40" d="M1831 856h40l-1 190v62l-1 116h-38z"/><path fill="#271b11" d="M1095 42h2v285h40v-42h42v123h-63v-1l61-1v-40h-121v-79h-40v-2h42V163l37-2zm44 245v40h2l1-21c1-14 1-14 3-16l6-2v-1z"/><path fill="#2b1c15" d="M1992 161v166h-2V163h-40v202h449v1h-570v-81h40v42h42V163l35-1c14-7 31-1 46-1m-123 202v2h79c-4-3-4-3-9-3h-47l-3-1-7-1c-7 0-7 0-13 3"/><path fill="#b18545" d="M1423 571h39v327h-39z"/><path fill="#040406" d="M690 571h245v80h-40v-40H730v40h-40zm1709-203h40v324h-40z"/><path fill="#050507" d="M2847 0h322v40h-322z"/><path fill="#040406" d="M490 774h240v124h-39v-84H490zm282-447h80v81h29v2h10l-1 3v17q0 9-5 14l-9 1h-4l-4 1h-37v2h-99v-40h40z"/><path fill="#a3783f" d="M814 737h35v284h2l1 40h-40l-1-104V789l2-4v-31z"/><path fill="#050507" d="M1748 203h42v82h39v81h-121v-39h40z"/><path fill="#2a1b14" d="M893 735h286v79h-2v-40H893z"/><path fill="#8a6137" d="M651 651h39v2h40v80h-40v2H489v-2h41l-1-20v-7l3-5q9-6 21-5h7l4-1-34-1v-1h37v-40h1v40h87c0-26 0-26-5-38z"/><path fill="#d4af62" d="M163 203h39v327h-33v-12l-1-101V236l-1-4q-2-11 2-21l1-4-6-2v325h-1z"/><path fill="#291b13" d="M2040 490h236v40h-282l3-11 1-7v-18l14-1h4l24-1z"/><path fill="#a4773e" d="M906 412h9l16 2 2 14h2v62H690v-42h207v-13l1-11v-8q3-5 8-4m-174 38v2q53 3 105 2h46l1 3 2-2 6-5z"/><path fill="#d6b164" d="M1260 44v38h-123v121h-40v-1h5v-9l-1-6-1-16v-17l-1-71c0-27 0-27 8-37z"/><path fill="#291a13" d="M690 530h245v41H690zM488 735h244v121h-2v-82H490v40h-2v-40h-40v-2h40z"/><path fill="#a1773c" d="M2196 655h16l3 1h7l8 1v3l1 68v33l3 135h-38V772h2l2-20v-2q0-8-4-14v-3h-41v-40h41z"/><path fill="#704c31" d="M690 490h245v40H690z"/><path fill="#724d33" d="M1992 448h244v40h-244z"/><path fill="#211712" d="M3054 163h35v39h78v1h-78v82h-39v42h-80l3-9 1-12v-21h34v-40h42v-42h6v-2l2-14h-4z"/><path fill="#5e4d35" d="m3034 84 50 2q3 7 2 16v9l-3 4q-5 3-11 3h-7q-7 0-12 3l-6 2v3l-1 9-2 22-36 2v2h-2l-1 13v2l-1 7v14q-5 2-12 2h-9l-11-1v-37h-2v42h-2v-86h-28l-5-2-2-13v-2q-1-5 2-9 13-9 28-7h24q24-1 46 4z"/><path fill="#a2783c" d="M1952 488h40v2h-18v2h16l-1 4-2 23v9l3 1 1 78v165h-22l-11-2V496l13-4 1-2h-18v284h-2z"/><path fill="#3a2f25" d="M573 529h8l8 1h20v2h40v39h-2v3l-1 68v4c-1 40-1 40-6 45l9 1v1h-80v-40h40v-82h-42l-1-40z"/><path fill="#d6b367" d="M1341 42h244v40h-244zm69 33-13 1h-28l-26 2v2h240v-2l-38-2h-2l-83-1h-35q-8-2-15 0"/><path fill="#aa7f42" d="M365 42h123v79h-81V82H165l-4-2h204z"/><path fill="#070709" d="M2764 978h81v39h-39v124h-42z"/><path fill="#352416" d="M40 121h81v40h42v817h-2V203H40v-40H0v-2h40zm2 40v41h39v-41z"/><path fill="#261710" d="M2439 1101h206v40h-204v24l-1 24v54h-1z"/><path fill="#6f4b30" d="M935 693h39v2l41 1h37q5 0 10-3h20l55 1v41H893v-30h1l1 28h40l-1-17c0-9 0-9 2-12l5-4 3-2 12-1 16-1 1-2z"/><path fill="#040405" d="M2603 980h82v161h-40v-124h-42z"/><path fill="#9a723f" d="M2276 0h2v40h407v2h-286v40h-42v12l-2 23h-25q-5-1-11 1-19 3-39 1v2h-4V82h42V42h-82v-2h40z"/><path fill="#d6b061" d="M648 980v31q-3 3-7 3h-97l-34-1h-99v-26c8-4 8-4 11-4h217l8-2z"/><path fill="#d8b365" d="M161 42h2v7l2-2q5-3 11-2h187l2-3v38H161z"/><path fill="#dab365" d="M2034 1224h200v26h-2v10h-2l-37-1h-40l-83 1h-36z"/><path fill="#201712" d="M3010 735h38v39h41v82h-39v-42h-40z"/><path fill="#2e2925" d="M2687 571h158v40h-158z"/><path fill="#261910" d="M2004 860h107l6 1q18 1 36-1l1 38h-160v324h-1V906q-1-8 3-16l1-5v-4c0-21 0-21 7-21"/><path fill="#d8b468" d="M2399 42h163v38h-163z"/><path fill="#170f0d" d="M1220 980h38v161h-38z"/><path fill="#a87b3f" d="M81 42h80v39l2 1h-42v-2h-2v2l-2 20v5l-1 1-1 7a129 129 0 0 1-35 3H58c-8 0-8 0-12-3l-2-5 3-10 3-18h31z"/><path fill="#221711" d="M2276 121h83v40h40v42h-123v-40h-40v-2h40zm2 40v41h81v-39l-14-2z"/><path fill="#2a1c13" d="M811 208v77h41v123h-1v-81h-80v-82h38l-1-19v-4z"/><path fill="#a97e41" d="M2562 42h83v77l-16-1h-16l-8-1 1-3q1-15-1-32h-206v-2h163z"/><path fill="#040404" d="M2847 161h80v42h-40v42h-40z"/><path fill="#221811" d="M2441 285h37l-1 4 1 38h44v39h-40v82h-2v-83h-39z"/><path fill="#291b12" d="M2236 1101h121v40h-39v42h-1v-42h-81z"/><path fill="#504532" d="M2724 611h121v40h-79v42h-1v-42h-41z"/><path fill="#6d5239" d="M1909 0h2v40h39v2h-39v243h-40v-82h38V42h-567v-2h567z"/><path fill="#050507" d="M1179 653h39v121h-39zM569 408h40v122h-40z"/><path fill="#060608" d="M2724 287h40v40h42v39h-82z"/><path fill="#080506" d="M651 205h39v122h-39z"/><path fill="#070809" d="M772 0h121v40H772z"/><path fill="#040405" d="M1911 42h39v119c-11 6-26 2-39 2z"/><path fill="#734e33" d="M656 530h34v121h-39V532h5z"/><path fill="#030303" d="M1097 491h40v120h-40z"/><path fill="#040406" d="M3131 898h40v40h39v40h-79z"/><path fill="#050507" d="M3171 42h39v119h-39z"/><path fill="#060606" d="M2685 42h39v119h-39z"/><path fill="#030406" d="M2236 42h40v119h-40z"/><path fill="#040305" d="M528 42h39v119h-39z"/><path fill="#020204" d="M1 42h39v119H1z"/><path fill="#020202" d="M1058 42h37v119q-19 3-37 2z"/><path fill="#040406" d="M2808 42h37v119h-37z"/><path fill="#9f763d" d="M1056 530h41l-2 1v107q0 4-4 9h-29l-2-84h-2v88h21l58 1v1h-81zm2 1v18l3-1 1-4 1-3 1-5h3l14-2q3-1 1-3z"/><path fill="#d7b064" d="M1992 735h121v35l-11 1h-10l-5-1-8-1h-24l-47 2h-2l-13 1-1 2z"/><path fill="#271a11" d="M1748 448h81v774h-41v-1h40V490h-80z"/><path fill="#694f32" d="M528 39v82h-40V42H43v-2h140l45-1z"/><path fill="#2b1c14" d="M2685 121v40h-40v36c-12 2-24 4-36-2v-13l-2-14v-18l2-23 38-2h15c8 0 16-4 23-4"/><path fill="#a67a3e" d="M1585 980h1l1 7 2-3h113v31l3 1v1h-120z"/><path fill="#aa7d3f" d="M2422 1145h3l9 1 2 24v10l-1 7v71l-4 2-2 1h-11l-11-1v-4h-4l1-6-2-4c-5-7-2-23-2-32v-56l1-10q11-5 21-3"/><path fill="#d2a95b" d="M2915 940h8q4 37 0 73-18 3-36 2v2h-38v-13q-1-11 6-18l11-4h2l14-1h2l8-3 1-7v-3l1-16v-3l1-5q9-5 20-4"/><path fill="#2c1f19" d="M2318 653h81v39h40v1h-40v42h-81v-42h-42v-1h42zm1 40v40h78v-40z"/><path fill="#3a2108" d="M365 161h1v37h2l3 16v2l-1 9v41l1 110v197l-1 67v71l1 170v3l-2 34h-2l-1 60h-1z"/><path fill="#594523" d="M1553 118h21l11 1v2h-41v450h-82V167h2v3l1 73v35l2 121v3l1 56v5l-2 106h76l-1-3-1-34V120z"/><path fill="#a67a3e" d="M987 332h10l11 2 4 86h2l-3 4-1 20h-30q-3-6-2-13l-1-3v-37l1-33 1-3v-13q0-9 8-10"/><path fill="#946c3a" d="M81 978h40v39h42v2h-42v2l-2 1-1 10v8l1 21H81v-42H42v82h-2v-84h41z"/><path fill="#c39c5a" d="M893 611h2v42h79v40h-79v26h-1q-2-20-1-41v-25h-40v-2h40z"/><path fill="#281a11" d="M2276 530h42v81h-42z"/><path fill="#211712" d="M3089 121h82v82l-4-1h2v-41l-27 1h-43l-10 1z"/><path fill="#a37a42" d="M2847 366h40v82h-40v-40h-40v-2h40z"/><path fill="#ab7e42" d="M2234 1224h84v40h-84z"/><path fill="#060405" d="M893 42h42v79h-42z"/><path fill="#060608" d="M2278 161h71l10 2v39h-81z"/><path fill="#514634" d="M1462 611h82v40h-82z"/><path fill="#a87f48" d="M1748 408h81v40h-81z"/><path fill="#593b25" d="M2724 366h82v40h-82z"/><path fill="#020203" d="M2482 366h40v82h-40z"/><path fill="#060503" d="M2808 245h39v82h-39z"/><path fill="#010103" d="M1218 203h40v82h-40z"/><path fill="#b28240" d="M1097 203h40v82h-40z"/><path fill="#050505" d="M935 121h39v82h-39z"/><path fill="#a6793f" d="M1260 42h81v40h-81z"/><path fill="#030305" d="M3101 161h68v41h-80v-39q5-2 12-2"/><path fill="#a1793f" d="M732 328h40v80h-40z"/><path fill="#010101" d="M609 328h40v80h-40z"/><path fill="#754f31" d="M327 121h38v82h-40l-1-10 1-2 1-49v-2q0-9 4-18z"/><path fill="#020202" d="M2522 653h40v80h-40z"/><path fill="#040404" d="M2887 532h40v79h-40z"/><path fill="#040301" d="M732 42h40v79h-40z"/><path fill="#020001" d="M2441 774h39l-1 81h-38z"/><path fill="#030303" d="M2604 530h39v81h-39z"/><path fill="#020204" d="M2929 366h38v82h-38z"/><path fill="#070709" d="M691 121h39v82h-39z"/><path fill="#35241b" d="M2887 366h42v124h-42v-2h40v-40h-40zm2 2v77q5-4 4-10v-8l1-5v-43l1-6h3l20-1h4l5-2v-2z"/><path fill="#06070a" d="M1179 285h38v80h-38z"/><path fill="#030303" d="M2968 654h40v81h-38v-42h-2z"/><path fill="#a2783d" d="M893 161h42v2l-7 1 1 2v12l3 24 3-1v42l-2-4-11 1h-3l-24 3v2h-2z"/><path fill="#050507" d="M2807 856h38v80h-38z"/><path fill="#030305" d="M2319 693h78v40h-78z"/><path fill="#040406" d="M2685 205h39v80h-37v-40h-2z"/><path fill="#291a13" d="M2845 42h2l1 81a89 89 0 0 0 39 2l23-1 17-1v38h-82z"/><path fill="#281b13" d="m2155 938 9 4q8 3 18 2l15-2 2-2q4-4 10-3h10l17 1v40h-80v39h-1z"/><path fill="#855c36" d="M1137 205h38l2 19v55q-7 3-14 3h-7l-4 1h-9v2h-6z"/><path fill="#2d2824" d="M1475 571h69v40h-78l1-22v-2c0-6 1-15 8-16"/><path fill="#d3ad5f" d="M1300 980h83v37h-2v-6l-3 1q-19 5-39 3v2h-39z"/><path fill="#060608" d="M530 532h37v79h-37z"/><path fill="#a47840" d="M1016 448h38l-1 61v3q1 9-4 14h-29l-2-27-1 30h36v1h-37z"/><path fill="#4b4230" d="M736 249h36v78h-40v-1l37-1q-3-3-8-2h-2l-25 2 1-49v-8z"/><path fill="#4c413b" d="M1788 530h2v450h-42v37h-42v-39h40v-40h2v40h40z"/><path fill="#9e7c48" d="M407 978h283v41H407v-2h242v-37H407z"/><path fill="#d7b167" d="M611 450h38v79h-2l-1-4-2 1-5-1h-24l-2 1v-33l-1-12v-3z"/><path fill="#896239" d="M1137 653h40v1l-36 1 8 1h11c8 0 8 0 11 3q4 14 3 29l-1 4v35l-15 3h-8l-13 1v-37h-40v-1h40z"/><path fill="#b58948" d="M2357 573v78h-38l1-12 2-26v-13c0-17 0-17 4-23q4-4 10-3h7z"/><path fill="#a87c40" d="m3195 1022 17 1v4l3-1q10-4 19-3l4-1 10-1v13l-1 17q0 6-5 10l-7 1h-13l-50-1 5-2v-36q8-2 18-1"/><path fill="#a7793f" d="m2568 1022 73 1v36h-74z"/><path fill="#a4783d" d="M2673 247h10v68l-2 8h-34v-32c-1-29-1-29 4-42q10-3 22-2"/><path fill="#b38443" d="m1451 127 2 1 5 1v3l1 51v18l3 2h-39v-38h2v-2q-1-10 1-21v-3l3-12q11-4 22 0"/><path fill="#926637" d="M528 654v39h2v38l-16-1h-13q-4 0-7-3v-65q-1-3 2-5l9-2h3z"/><path fill="#a0773d" d="M853 44h38l-1 30v24l-1 19h-32l1-19v-7l-3-6q-3-5-2-12z"/><path fill="#a1793e" d="M2849 573h34q3 6 2 13v13l-1 31-1 3q0 9-6 14l-11 1h-9q-4 0-8-3z"/><path fill="#ab7e40" d="M2939 247h2q12 2 25 0v4l-1 15v2l1 19c1 26 1 26-2 32q-6 3-13 3h-4l-14 1q-5-12-4-25v-7c1-25 1-25 3-34l2-5 5-1z"/><path fill="#9f773e" d="M871 328h10l8 1 2 13v57q1 3-2 5h-30q-2-10-2-21v-37q-1-9 4-17 4-3 10-1"/><path fill="#81613a" d="M163 121h41v816h-1l-1-776h-38v42h-1z"/><path fill="#a0773d" d="M963 247h9v24q1 22-2 43l-1 2-1 7-2-1-18-1h-11v-58h2v-2c0-7 0-7 3-10q10-5 21-4"/><path fill="#4f3f1f" d="M1139 82h490l-2 1v2l-9 1h-3l-76 2h-51l-5-1-12-1h-193l-30 1h-5l-4-1h-9l-37-1-52-1v1q3 10 2 19v95h3l5 1h2l8 1v2h-22z"/><path fill="#8f6f48" d="M365 239v739h-10l2-3c7-13 3-35 3-49v-11l1-165v-62l2-441v-5q-1-4 2-3"/><path fill="#966e3b" d="M2609 737h32v75h-30l-2-11v-6l-2-49v-3z"/><path fill="#b08544" d="M2954 125h12l1 51v15l-3 8q-6 3-15 2h-5l-9-2-2-53v-3q-1-7 3-15 8-6 18-3"/><path fill="#916939" d="M2562 857v27h-2l-3 32v10l-1 3q1 3-2 4l-8 1h-20v-50q-1-10 3-21 8-3 18-2z"/><path fill="#926e3e" d="M1300 978h123v41h-84v42h-39v-42h-40v42h-1v-44h162v-37h-121z"/><path fill="#4b331f" d="M2276 1183h42v41h-326v-2h284z"/><path fill="#2b2522" d="M2599 737v69q-10 4-22 5h-2l-5-1q-5-8-4-17v-46l3-7q5-4 9-3z"/><path fill="#ab7b40" d="m2564 123 33 2 4 18h-2l-1 24v28l-4 4-8 1-14 1h-4l-1-55v-16l3-5-6-1z"/><path fill="#2e2924" d="m2484 860 3 1 16 1h11q7 20 3 41l-1 19v10l-11 2h-21l1-18v-27l-1-17z"/><path fill="#926c3c" d="M2522 733h163v2h-40v81h-42v40h-41v-40h-40v-2h81v-36h1v36h39v-79h-39v42h-1v-42h-81zm42 83v30h2l3-24 9-2h5l18-2v-2z"/><path fill="#775333" d="M2603 488h84v163h78v42h-1v-40h-79V530h-40v-40h-42z"/><path fill="#a97c40" d="M827 209h20q3 18 2 36v3c0 23 0 23-4 33h-10l-13-1-3-1h-2v-21l-1-7v-13l-1-16v-2l3-10z"/><path fill="#866236" d="M730 121h2v206h40v1h-40v76h-1l-1-36h-40v-41h40z"/><path fill="#504732" d="M2909 248h7l7 1v72l-21 2h-3l-6-2v-26l-1-10v-4l-2-23 2-6q7-5 17-4"/><path fill="#9e7d4f" d="M326 225h3v727l-2 26h-1z"/><path fill="#5a4029" d="M3089 909h1q2 22 1 43v26h40v39h121v2h-81v42h-1v-42h-81z"/><path fill="#6b5032" d="M1014 327h2v203h40v41h-42z"/><path fill="#3a2c23" d="M2968 653h42v80h40v41h-2v-39h-38v39h-42v-81h2v42h38v-81h-40z"/><path fill="#8c683b" d="M2845 938h2v79h82v2h-42v42h-40v-42h-41v-2h39z"/><path fill="#1b1b1d" d="M567 42h2v121h-39v39h-42v-41h79z"/><path fill="#564220" d="M1952 408h404v122l-3-2V412l-240 2h-14l-17-1h-4l-89-1h-13c-17 0-17 0-24-2z"/><path fill="#342419" d="M2439 245h41v82h-2l-2-30v-2l1-9-36-1v80h39v1h-41z"/><path fill="#694830" d="M2968 774h2v40h38v-40h2v40h40v2h-40v40h-42z"/><path fill="#7b5534" d="M2562 327h2v39h39v42h-39v40h-2v-80h-40v-2h40z"/><path fill="#554322" d="M121 82h286v79h-2v-40h-42c5-4 7-5 14-6l5 1h13q3 2 4-1l3-8v-2l-1-21-60 4h-2l-9-1-8-1h-10l-22 1H131l-3 6q-2 5-2 11l-1 13h35v2l3 1v1h-42z"/><path fill="#a37a42" d="M649 366h41v2h-39v40h39v40h-39v42h-2z"/><path fill="#5e4d35" d="M2685 327h2v39h37v40h82l1-2v4h-122z"/><path fill="#533823" d="M2724 693h82v2h-40v79h-2v-39h-40z"/><path fill="#443224" d="M935 203h81v82h-2v-80h-40v40h-39z"/><path fill="#704b31" d="M2806 774h41v81h40v1h-40v42h-2v-84h-39z"/><path fill="#5c412c" d="M1706 368h1v40h41v40h-40v40h40v2h-42z"/><path fill="#32251d" d="M3131 856v82h-40l-2-57v-22c1-14 28-3 42-3m-40 2v40h38v-40z"/><path fill="#9a7a52" d="M1984 856h7v366l-7-2 1-2V864z"/><path fill="#61422e" d="M1544 938h41v80h82v1h-84v-41h-39z"/><path fill="#231a15" d="M2847 530h82v81l-2-1v-78h-40v37h-40z"/><path fill="#845a37" d="M2480 245h42v81c-13 6-28 1-42 1zm1 40v41h39v-41z"/><path fill="#503625" d="M2685 245h2v40h77v1h-40v41h-39z"/><path fill="#37261a" d="M2603 490h42v121h-2v-81h-39v81h-1V492l31 3 7-1v16h2v-19z"/><path fill="#573823" d="M2562 978h2v2h37v33h2v4h42v2h-123v-2h40z"/><path fill="#432c20" d="M3089 774h2v77l-1 6v20l-1 19h-39v-40h39z"/><path fill="#60402c" d="M325 978h40v39h42v2h-82z"/><path fill="#9c7542" d="M2113 814h42v42h-42z"/><path fill="#b28647" d="M2643 611h2v82h-42v-40h40z"/><path fill="#392618" d="M3008 203h42v42h-42z"/><path fill="#563926" d="M2113 653h41v1h-39v39h39v40h-41v-39l-2-1h2z"/><path fill="#291c14" d="M2845 898h42v40h-81v-2h39z"/><path fill="#694830" d="M3010 856h40v40h39v2h-79z"/><path fill="#4e311f" d="M2480 735h2v39h40v40h-42z"/><path fill="#2c1e15" d="M2645 203h79v2h-39v40h-40z"/><path fill="#221711" d="M2399 203h40v42h-80v-2h40z"/><path fill="#64442b" d="M164 978h40v41h-41z"/><path fill="#4c402a" d="M2887 203h81v42h-39l-1-40-41-1z"/><path fill="#533625" d="M1016 408h42l1 81h-2v-41h-41z"/><path fill="#211813" d="M2967 611h1v82h-39v-42h38z"/><path fill="#b38947" d="M2845 327h2v79h-40v-40h38z"/><path fill="#4e3615" d="M1421 121h2v857h-2z"/><path fill="#362315" d="M2685 653h39v40h-37v42h-2z"/><path fill="#6b4d2f" d="M2318 490h1v40l38-1v40h-39z"/><path fill="#b28244" d="M1706 1019h40v42h-40z"/><path fill="#d8b269" d="M42 1019h39v42H42z"/><path fill="#d0aa61" d="M121 978h42v39h-42z"/><path fill="#64452d" d="M2887 898h42v40h-42z"/><path fill="#a27740" d="M732 814h40v42h-40z"/><path fill="#62432f" d="M2929 733h39v41h-39z"/><path fill="#0c0b08" d="M2564 611h39v42h-39z"/><path fill="#554a36" d="M244 611h40v42h-40z"/><path fill="#6a4a32" d="M935 530h39v41h-39z"/><path fill="#2e1d13" d="M2806 490h41v40h-41z"/><path fill="#a47941" d="M2603 448h42v40h-42z"/><path fill="#a67c40" d="M2724 408h42v40h-42z"/><path fill="#9c7542" d="M2968 203h40v42h-40z"/><path fill="#010101" d="M2645 161h40v42h-40z"/><path fill="#d2ae64" d="M732 161h40v42h-40z"/><path fill="#9a733e" d="M121 121h42v40h-42z"/><path fill="#d7b56d" d="M2276 42h42v40h-42z"/><path fill="#533625" d="M1095 408h2v82h40v1h-40v38c-6 0-6 0-10-2l-6-1h-21l-1-38h36z"/><path fill="#8f6437" d="M2161 857h35v39h38v2h-77c1-33 1-33 5-39z"/><path fill="#917550" d="M2113 651h123v247h-2l-2-38-1-54v-8l-1-141h-9l-16-1h-3l-6-1v-2h-40v40h-1l-1-39-41-1z"/><path fill="#080607" d="M2399 857h40v41h-40z"/><path fill="#61412a" d="M2847 814h40v41h-40z"/><path fill="#7b5631" d="M690 368h1v40h39v40h-40z"/><path fill="#070609" d="M42 161h39v41H42z"/><path fill="#d7b166" d="M732 856h40v42h-38l-1-14v-7l-1-4z"/><path fill="#080705" d="M489 611h39v42h-39z"/><path fill="#a97d40" d="M164 161h38v42h-38z"/><path fill="#201712" d="M2929 611v40h-40l-1-15v-25l30-1h3z"/><path fill="#3c2b14" d="M2318 1224h1v44l-18 2h-53l-28-1h-188l-9 1h-14c-21 0-21 0-27-5v-1h336z"/><path fill="#63442f" d="M2887 693h42v40h-42zm20 1v3l4 1h11l2-4z"/><path fill="#3f2b1a" d="M772 203h40l-1 12-1 11v19h-38z"/><path fill="#a57840" d="M895 693h40v40h-40l-1-13v-2z"/><path fill="#322a22" d="M651 490h39v40l-39 1z"/><path fill="#69482d" d="M1952 1224h40v40h-40z"/><path fill="#926a3b" d="M3212 1061h40v40h-40z"/><path fill="#d2ad63" d="M2359 978h40v39h-40z"/><path fill="#4b3927" d="M3050 938h39v40h-39z"/><path fill="#050505" d="M2847 938h40v40h-40z"/><path fill="#61422e" d="M1423 938h39v40h-39z"/><path fill="#000" d="M2359 898h40v40h-40z"/><path fill="#6e4b2f" d="M2196 898h40v40h-40z"/><path fill="#8f693a" d="M1423 898h39v40h-39z"/><path fill="#000" d="M651 898h39v40h-39z"/><path fill="#6b4e33" d="M772 774h40v40h-40z"/><path fill="#251811" d="M2724 735h40v39h-40z"/><path fill="#2e1d12" d="M2645 735h40v39h-40z"/><path fill="#080705" d="M2482 735h40v39h-40z"/><path fill="#d6b26c" d="M772 735h40v39h-40z"/><path fill="#ab7e43" d="M2645 693h40v40h-40z"/><path fill="#795133" d="M2645 653h40v40h-40z"/><path fill="#ba8a48" d="M1097 653h40v40h-40z"/><path fill="#cba45a" d="M528 653h39v40h-39z"/><path fill="#744e31" d="M2359 611h38l-1 6v9l-3 25h6v2h-81v-2h41z"/><path fill="#332014" d="M935 611h39v40h-39z"/><path fill="#453121" d="M528 611h39v40h-39z"/><path fill="#d5b36b" d="M569 571h40v40h-40z"/><path fill="#060608" d="M2847 490h40v40h-40z"/><path fill="#08070a" d="M2887 448h40v40h-40z"/><path fill="#030405" d="M2522 448h40v40h-40z"/><path fill="#070408" d="M1708 448h40v40h-40z"/><path fill="#d1ab60" d="M2766 408h40v40h-40z"/><path fill="#221710" d="M2522 408h40v40h-40z"/><path fill="#342214" d="M2522 368h40v40h-40z"/><path fill="#a77b42" d="M2847 245h40v40h-40z"/><path fill="#010102" d="M2399 245h40v40h-40z"/><path fill="#d4b77c" d="M164 205c6 1 6 1 8 3l-2 2q-2 7-2 15v4q-2 3 1 5v296h-5z"/><path fill="#030102" d="M2359 203h40v40h-40z"/><path fill="#84613b" d="M1790 121h39v40h-39z"/><path fill="#805b38" d="M1179 121h39v40h-39z"/><path fill="#997440" d="M365 121h40v40h-40z"/><path fill="#7d5533" d="M2645 82h40v39h-40z"/><path fill="#d3af66" d="M772 82h40v39h-40z"/><path fill="#d4b166" d="M2847 42h40v40h-40z"/><path fill="#24170f" d="M2687 693h37v42h-37z"/><path fill="#3b2618" d="M3171 978h2v2h37v9h2v28h-41z"/><path fill="#8a6c47" d="M772 733h81v328q-2-5-2-12v-28h-2V737h-35v46l-2 4v-52h-40z"/><path fill="#040202" d="M2115 654h40v39h-40z"/><path fill="#050507" d="M2929 611h38v40h-38z"/><path fill="#060608" d="M2564 490h39v39h-39z"/><path fill="#d5b26c" d="M2442 857h37v41h-37z"/><path fill="#271a11" d="M1294 978h6v39h-42v-2h2v-35h34z"/><path fill="#513f1f" d="M2359 82h244v39h-41v-2q18-2 37-1V84l-9 2h-23l-5 2h-37l-5-1-13-1h-3l-89 2h-15l-4-1-8-1h-18l-7 2v33h-4z"/><path fill="#07060a" d="M2968 327h39v38h-39z"/><path fill="#000" d="M3091 858h38v40h-38z"/><path fill="#6e4a30" d="M2766 695h40v38h-40z"/><path fill="#684f37" d="M976 611h38v40h-38z"/><path fill="#9e7642" d="M2808 448h37v40h-37z"/><path fill="#d5b780" d="M1748 368h406v7h-5l-3-1-21-1h-202l-109-1h-2l-64-2z"/><path fill="#85643b" d="M204 937v41h-28q-3 1-6-3-5-12-4-25l-1-4v-8l16-1z"/><path fill="#6e4b2e" d="M3129 82h38v32q-1 4 3 7h-41z"/><path fill="#573824" d="M2276 978h42v39h-1l-1-29-2 8v8c0 7 0 7-3 9l-9 2h-20v2h-6z"/><path fill="#d5af65" d="M690 285h1v41h7v-4q-4-19-4-37h36v42h-40z"/><path fill="#d9b76d" d="M2808 328h37v38h-37z"/><path fill="#543823" d="M730 203v42h-39v-28q-1-3 3-5 8-5 17-5l8-3 5-1z"/><path fill="#cea95d" d="M651 368h39v40h-39zm34 2 2 36h2v-36z"/><path fill="#9e713a" d="M407 980v37h-41v-26q0-5 3-7l6-1 22-2 2-1z"/><path fill="#865b32" d="M1710 1304h78v2l-20 1h-10l-10-1v35l-9-2c-5-1-5-1-10 1l-9 2h-8l-1-18z"/><path fill="#2d1f18" d="M3007 327h1v39h-40v82h-1v-82h-38v-3l3-1 1-30 14-2h21v35h39z"/><path fill="#a7793e" d="M1383 980h38v37h-38z"/><path fill="#08080a" d="M1139 613h38v38h-38z"/><path fill="#885f38" d="M2482 938h40v40h-10v-2l-13-1h-3l-10 1z"/><path fill="#211712" d="M2847 450h1l1 6 1 3 1-3 4-3h9l23-1v38h-40z"/><path fill="#dbb76d" d="M814 44h39v36h-39z"/><path fill="#281912" d="m2766 776 36 4v3l1 11v11l1 6 1 13v31h-1v-39h-10c-24 0-24 0-28-2z"/><path fill="#573823" d="M635 408h14v40h-40v-16h2l4-20 7-1h2l11-1z"/><path fill="#aa7c42" d="M2276 450v38h-40v-19c0-10 0-10 3-14q4-4 9-3h3l3-1z"/><path fill="#53421e" d="M1871 510h2l1 54v4l1 48v19l2 20v6l-1 31v76l-1 33v97h-4z"/><path fill="#624631" d="M690 327v39h-41l3-1v-2l2-5v-24q0-4 4-6l7-1z"/><path fill="#a97c40" d="M2113 735h41c-2 28-2 28-7 33q-9 6-19 3h-4l-9-1v4h-2z"/><path fill="#a27941" d="M2645 205v40h-41v-2h5l-2-2v-23l2-7q10-4 21-4l7-1h3z"/><path fill="#967441" d="M1829 408h2v40h40v40h-4l-1-23-1-4v-9l-13 1-14 3q-4 8-3 17v8l-2 5-1 9v224l-1 137h-2z"/><path fill="#312018" d="M2603 857v41h-37v-15c1-19 1-19 4-24h1l9 1 3 1q8 1 15-3z"/><path fill="#553824" d="M2359 938h40v40h-2v-34h-2v10l-1 3-2 16-21 2h-3l-7 1v2h-2z"/><path fill="#33240f" d="M1871 898h9l-2 3-1 4v9l-1 38v58l-1 46v172l-4 2z"/><path fill="#543a28" d="M2399 898h38l-1 26c-1 7-1 7-4 10l-9 1-4 1h-20z"/><path fill="#a5783f" d="M2482 285h38v24h-2l-1 7-1 5h-9l-25 4z"/><path fill="#9f753f" d="m2478 207 1 10v28h-37v-29h2v-6q4-2 10-2h4l3-1z"/><path fill="#d5ac60" d="M1300 1021v40h-40v-2l5-1-1-1v-10l1-7v-5l1-12 12-1h8z"/><path fill="#af7f40" d="M2358 979h1v38h-40l1-9v-3l1-21 3-1 19-1h4l10-1z"/><path fill="#221710" d="m2564 450 24 1h3l6 1q3 18 2 36h4v2h-24v-2h-15z"/><path fill="#5e3f2d" d="M2562 653h40l-2 1-1 12v2l-1 6v4l-1 11h-18l-3 1-14 2z"/><path fill="#a07d4c" d="M1954 490h18l-1 3-13 3v274h11l10 1h2l10 1v-37h1v39h-38z"/><path fill="#cfab5b" d="M2849 285h36v36l-10 1h-2l-24 1z"/><path fill="#a77c3f" d="M780 44h32v38h-38l3-24v-3l1-4v-3z"/><path fill="#291a13" d="M2643 818v10h2l-1 11v8l-1 9h-39c0-6 0-6 2-9q4-5 2-12v-2l-1-7-2-1c9-7 17-6 28-6z"/><path fill="#503526" d="M690 898h38v36l-15-1c-10-1-10-1-21 2l-2 3z"/><path fill="#b68644" d="M2524 774h37l-2 12v2l1 24h-18v-2l-3 1h-3l-3 1h-9z"/><path fill="#d5ae61" d="M2845 1021v40h-37c2-26 2-26 6-34l10-4h7l4-1z"/><path fill="#ac7e43" d="M3010 818h36l-1 16v8l-2 12 7 1v1h-40z"/><path fill="#d5ae62" d="M2196 655v38h-37v-25l1-2 1-9h22z"/><path fill="#4e3424" d="M1748 1224h38l-1 8-1 7v21h-3l-10 1h-15l-8 2z"/><path fill="#755033" d="M1869 1224v34l-6 2-2 2q-3 4-8 3l-7-1h-13l1-13v-3c0-15 0-15 4-20 9-6 20-4 31-4"/><path fill="#af8242" d="M1993 1224h41v32q-7 3-13 2h-20l-8-1 1-10v-6l1-3q0-6 4-10l-6-3z"/><path fill="#a57840" d="M724 245h6v40h-36l1-12v-16l1-6q8-5 18-4h10z"/><path fill="#aa7c41" d="M2847 857h38v37h-34l-1-15v-2l-1-19z"/><path fill="#a97c40" d="M1747 1265h1v39h-38l1-24 1-2v-6q8-4 18-3l16-2z"/><path fill="#5d3d27" d="M690 938v40h-41v-4h2v-13c0-12 0-12 4-18q6-3 15-2zm-3 4-2 9v25l4 1v-35z"/><path fill="#af8242" d="M2159 898h37v34l-12 1h-4l-19 1-1-11-1-3z"/><path fill="#9b733d" d="M3052 900h35l1 16v9l-2 10-9 1h-12c-10 0-10 0-13-2l-1-8v-9z"/><path fill="#815633" d="M2355 1143v12h2v-8h1v34h-39l2-13 1-11 2-9 8-3h2z"/><path fill="#855c36" d="M771 775v39h-38l2-14v-8l1-3 1-9 20-2h4l8-1z"/><path fill="#ac7f41" d="M2645 530h40l-2 2-1 8v11l1 5v13h-36l3-19v-5l1-9 8-2v-3z"/><path fill="#9c743e" d="M2560 329v27l-1 7q-5 3-10 2h-9l-16-1-1-6v-4c-1-15-1-15 2-21 8-9 24-5 35-4"/><path fill="#d6b365" d="M2645 44h38l-1 23v4l-1 7h-36z"/><path fill="#493222" d="M1103 611h34v38l-5-1h-11l-4-1h-14l-2-11v-3z"/><path fill="#ab7e42" d="M44 1061h37v32h-4v4l-3-1q-14-1-26 1-4-12-4-25z"/><path fill="#9a6f3d" d="M1747 369h1v39h-2v-2h-38l2-1v-2c0-22 0-22 3-28q5-4 12-3h7l14-1z"/><path fill="#a2793e" d="M3008 161h42v2h-9l1 4h2l1 12v7l1 13h-32l-1-16-1-4v-14l2 1q12 1 24-1v-2h-28v39h40v1h-42z"/><path fill="#ac7d3f" d="M2288 491h4l24 3v33l-9 1h-23q-5-11-4-22v-3l-1-3v-3l2-4z"/><path fill="#9a723c" d="M3076 123h11v36h-33c-5-9-2-22 0-32q10-4 22-4"/><path fill="#ac7c41" d="M2810 1061h35v38c-27 0-27 0-33-6l-1-5v-16z"/><path fill="#a1753d" d="M2767 733h39v41h-1v-39l-6 1 3 1v33l-9 1h-3l-11-1h-9l-1-12v-3c-1-13-1-13 4-18l1-1-7-1z"/><path fill="#322018" d="M3008 245v40h-34v-26l2-10h11l3-1z"/><path fill="#564322" d="M2929 82h160v39h-36l3-3 14-1h4l10-4V86h-6l-44-1-1 3-3-1a345 345 0 0 0-69-2q-12-1-23 5-5 5-4 12v2l2 11 10 2h22v4h-39z"/><path fill="#d3ae61" d="M2646 571h37v38h-14l-18-2v-3l-1-11-1-5v-9z"/><path fill="#504531" d="M659 454h26q3 7 3 16l1 20h-36l1-11v-19l1-3q-1-4 4-3"/><path fill="#332016" d="M2562 938v40l-4-3-6-1h-10l-18 2v-26l4-8h2c12 3 21-4 32-4"/><path fill="#d6ae5e" d="M2401 940h35l1 6-2 28h-32l-2-11z"/><path fill="#4e4532" d="M2810 410h33v32q-10 4-21 4h-4q-5 0-8-4l-1-7v-9z"/><path fill="#af8242" d="M2526 982h34v33l-15 1h-11q-4 0-7-4-5-13-3-26z"/><path fill="#372611" d="M1543 651v297h-2q-4-21-3-42V668q0-8-3-15h7z"/><path fill="#b78642" d="M734 205h34v28l-1 7q-4 2-9 1l-2-1q-10-1-20 1a41 41 0 0 1-2-18z"/><path fill="#463e2b" d="M2853 330h32v32q-4 4-10 3h-3l-5-1h-14q-7-13-2-30z"/><path fill="#d6b061" d="M80 43h1v39H46l1-8V60l1-12h31z"/><path fill="#b08245" d="M3113 941h3l7 1q4 5 4 11v25h-35v-20h3v-12q9-5 18-5"/><path fill="#d5af62" d="M2560 737v37h-32v-13l2-22 12-1 4-1z"/><path fill="#9f763f" d="M1872 285h34l-2 2-1 4h4v2l-2 30-3-1q-14-1-29 1l2-35z"/><path fill="#a47b3f" d="M3006 778v33q-4 2-9 1h-25l1-23v-2c0-6 0-6 3-8 9-6 20-2 30-1"/><path fill="#d4ae5c" d="m1827 1226 1 12v10l-5 12h-30q-2-4-2-10v-11l2-11h10l16-1z"/><path fill="#d3ac5e" d="M2332 1184h24v37l-12-1-21-2v-29l8-3z"/><path fill="#c9a354" d="M1099 285h34l-3 36h-29l-1-10v-3z"/><path fill="#857257" d="M730 40h163v81h-40V82l4 5 1 1v15l-1 14h32v-13l2-60h-3l-96-2h-60v79h-2z"/><path fill="#ac7e41" d="M2700 330h22l-1 27v7l3 2h-35v-15l2-19q4-2 9-2"/><path fill="#2f2a23" d="M2656 617h25c2 22 2 22 1 30l3 6h-40v-2h16v-2h-12v-15c1-17 1-17 7-17"/><path fill="#b78644" d="M733 885h1v13h37l-2 2-1 8v2l-2 22h-32z"/><path fill="#a5793e" d="M2579 408h22l-2 26v3l-2 7-14 1-4 1h-11v-32l11-4z"/><path fill="#cda65a" d="M2566 697h33l1 15v11l-3 6q-4 2-9 2h-22z"/><path fill="#d6b164" d="M2620 614h5l3 1 13 2v34h-32v-35z"/><path fill="#a97c3e" d="M571 611h28l6 2v11l-2 21q-4 3-10 2h-18q-3-6-3-13v-12z"/><path fill="#af7f40" d="M2891 655h9l2 1 21 1v27l-1 7 6 1v1h-19v-2h-4l-4-1h-2l-8-1z"/><path fill="#d4ac5a" d="M708 939h13l3 1q3 4 2 9v20q1 3-2 5h-30l-2-32q7-4 16-3"/><path fill="#cbae73" d="M2232 1250h2v14h-200v-4l42-1h4l95-1h21q18-1 36 2z"/><path fill="#3b2a1c" d="M3123 1019h47v42h-283v-15l2 1v12h5l273-2-1-3v-4l-1-3v-18l2-8h-44z"/><path fill="#4c422f" d="M691 368h33q3 8 2 14v22h-23q-3 1-7-2v-7l-4-22z"/><path fill="#cea85b" d="M2925 207v34h-32q-3-7-2-14l-1-3q0-10 5-15c8-4 21-2 30-2"/><path fill="#aa7d41" d="m2397 123-1 12v3l-1 19-13 1-3 1h-18v-24l2-6 10-3h3l8-1 3-1z"/><path fill="#a2793f" d="m3137 982 8-1h2q10 0 20 3v24l-1 7-18 1h-10l-3-1q-3-6-2-14v-3q0-10 4-16"/><path fill="#2d2723" d="M2538 818h22v28q1 4-2 7-3 2-8 1v-1l-22-1-3-27 3-5q4-2 10-2"/><path fill="#b08040" d="m1865 452 1 14 1 3v19h-34l1-12v-3q0-10 4-18l6-2 3-1z"/><path fill="#a3773e" d="M2807 814h38v2h-24v2h22v32h-31l-1-12v-4c0-10 0-10 4-15l2-3h-10z"/><path fill="#d8b164" d="M2398 1103v38h-2v-6h-2l-8 1h-3c-16 2-16 2-21-1v-12q0-8 3-17l4-1h25l2 4z"/><path fill="#a0773d" d="m2437 165-2 32-3 1h-2l-3 1-4 3h-13l-7-1c1-32 1-32 4-35h11z"/><path fill="#d7af5d" d="m1784 1268-2 34 5 1v1h-7l-1-2q-8-2-16-1h-10q-3 0-5 2v-25q0-4 4-8l14-1h3z"/><path fill="#a3773e" d="M766 125q4 18 4 36h-36l2-12 1-4 3-18h19z"/><path fill="#a67a3f" d="M951 571h21v24l-3 9q-8 5-18 3h-11v-27q1-10 11-9"/><path fill="#9b733f" d="M2933 699h20l11 2v30l-7-1h-26l-2 2v-29h4z"/><path fill="#322b24" d="M2611 696h18l12 1-2 32-15 2h-15q-3-17-2-34z"/><path fill="#d4ab5c" d="M2493 818h25v28l-1 5q-4 2-9 1h-22v-24c0-4 2-10 7-10"/><path fill="#b18240" d="M2442 898h34v18l-1 3-1 13h-29l-1-20v-7z"/><path fill="#ac7d3f" d="M2713 615h9l1 10v3c0 8-2 12-5 21h-29c-1-21-1-21 4-30q9-6 20-4"/><path fill="#5e4d35" d="m2925 330-1 16v7l-1 7-3 1h-10l-4 1h-7c-6 0-6 0-10 3v-22l1-3q0-6 4-10h20l4-1z"/><path fill="#ae7f41" d="M2824 533h10c8 0 8 0 9 2v12l-1 7v8l-2 3-10 1h-17q-4-4-4-10v-17l2-4q7-4 13-2"/><path fill="#a58457" d="M2887 42h283l-1 16h-4l2-12h-3l-275-2v38h-2z"/><path fill="#d3aa5c" d="M2296 1023h11q4-1 4 3 3 3 2 7l1 3v6l1 11-7 4h-6l-3-1-4 1c-9-1-9-1-12-3q-4-5-3-11v-3l1-3v-4c1-12 4-10 15-10"/><path fill="#9f743e" d="M2739 657h21l1 22v4l-1 5q-5 2-10 1l-10 2 24 1v1h-40v-1l6-1v-27q1-9 9-7"/><path fill="#332b27" d="M2804 1141h2v40h445l1-2v4h-448z"/><path fill="#d3b578" d="M649 1011v6H407v-2h4v-2h228z"/><path fill="#d4b984" d="M1097 42h163v2a2075 2075 0 0 1-140 2h-6l-15-2 1 100 1 12v16l2 23-1 7h-5z"/><path fill="#d3b578" d="M407 980h241l-3 4H424l-12 2 4-3-9-1z"/><path fill="#3a2b16" d="M2359 1141h40v123l-4-2v-117l-26 2h-8l1 2 1 12v63h-4z"/><path fill="#2e1702" d="M1585 121h4l1 4v7l1 10-1 7 1 17v6l-1 10v158l-3 10h-2z"/><path fill="#352611" d="M2441 938h39v40l-6-7 1-2 1-10v-17l-10 1h-7l-13 1 1 4c0 26 0 26-6 34l-10 1h-13l-11 1-3 27-1 3v2l-2 5-4-1h2v-42h42z"/><path fill="#6a472f" d="M1829 856h2v408h-2v-40h-41v-2h41z"/><path fill="#5c472f" d="M974 571h2v80h38v-40h2v42h-40v40h86q-6 5-13 4h-61l-14-2v-42h-79v-2h79z"/><path fill="#967647" d="M1585 978h121v39l-4-2v-31l-113 1-2 3q-2-4-2-10"/><path fill="#8f6f48" d="M325 203h40v36h-1v-35l-37 1-1 773h-1z"/><path fill="#332410" d="M811 821v238l-7-1q-2-3 0-7 3-8 2-17v-70l1-110v-3l2-9v-14z"/><path fill="#45341c" d="M2480 856h42v1h-40v25h2c5 17 2 35 0 52l13-1h11l7-1 1-23c1-26 1-26 3-33l3-2v64h-42z"/><path fill="#a07e51" d="M2399 1141h40v123h-2v-2h-9l-1-2 8-2v-93l-2-19h-14q-7-1-14 2h-4v94l-1 17h-1z"/><path fill="#dbbf88" d="M163 42h201l-1 4h-3l-184 1h-3q-6 0-10 2z"/><path fill="#7a5e45" d="M1056 40h197l89 1v1h-284v243h-2z"/><path fill="#d5b674" d="m1414 74 13 1h37l81 1h3l35 2v2h-240v-2l29-2h28z"/><path fill="#977240" d="M2845 0h2v40h322V0h2v42h-326z"/><path fill="#a37d4b" d="M2180 367h217v3l-199 3h-4q-8 1-14-4z"/><path fill="#604b26" d="M2889 245h40v82h-40zm2 8q-2 4-1 9v64h11l14-1v-2l8-2v-72q-18-5-32 4"/><path fill="#997851" d="M1095 531h2v120h-39v-88h2l1 20v2l1 62h23l3-1h3q4-5 3-10v-56z"/><path fill="#8f7755" d="m40 42 2 1v39h2v22h2l-2 5 4 6q6 3 14 2h39l6-2h8v-2l3-22v-3l1-8h2v41H40z"/><path fill="#90744e" d="M2397 368h2v243h-2v-2l-1-46v-42l-1-22v-4l-2-26 1-22 2-45z"/><path fill="#99784a" d="M730 856h2l2 41v35h32v-15l1-9v-3l1-5 4-2v40h-40v40h-2z"/><path fill="#85643b" d="M202 203h1v734h-1z"/><path fill="#bc9e68" d="M2887 938h42v79h-1l-1-39h-2l-1-13-1-4v-21h-9q-10 1-19 4v2l-1 11v3l-3 19q-4 3-12 2h-2l-30-1v-2h40z"/><path fill="#331b07" d="M1993 857h161v13h-1v-10l-2 1-12 1h-24l-7-1h-108l-1 5v2l-1 15-4 14h-1z"/><path fill="#bc9f6a" d="M2480 814h42v42h-42zm8 7-1 2-1 2v27h26l5-1q2-4 1-9v-24h-25q-3-1-5 3"/><path fill="#a18050" d="M2929 121h39v82h-39zm20 3h-2q-7 0-11 4-4 9-3 18l1 38v10l1 5c7 6 7 6 32 3v-79z"/><path fill="#584424" d="M1847 82h22v121h-39c7-6 15-5 24-6h11V90l2-6-18 2z"/><path fill="#a6824f" d="M976 328h38v92h-2l-1-12-1-4v-17l-1-11v-8l-1-6v-28l-18-1h-5l-4 2-1 10v7l-2 20-2-4z"/><path fill="#98784d" d="M2604 735h39v79h-39zm5 2q-3 4-2 9v2l1 8v15l1 6v24l2 11h30v-75z"/><path fill="#262525" d="M3210 938h2v40h80v163h-2V980h-78v9h-2v-9h-37v-2h37z"/><path fill="#a8834f" d="M2564 124h6v2l-1 1-1 74 9-2h9l10-2v-4l1-14v-6c0-21 0-21 2-30h2v60h-37z"/><path fill="#866434" d="M1748 366h651v1h-651z"/><path fill="#93764c" d="M853 327h40v79h-40zm7 3-3 12v44q-1 10 2 18h27q3 1 5-2v-63l-2-10-12-1h-3l-3-1h-3z"/><path fill="#8f6e47" d="M2528 864v5q-2 9-2 19v46l13-1h10l6-1v-4l1-14 1-6 1-8v-3l2-13h2v54h-40v-64l2-1 2-5 1-2z"/><path fill="#553f2f" d="M649 203h41v2h-39v122h38v1h-26l-5 1q-3 3-3 8v11q1 10-3 17h-3v-37h-40v-1h40z"/><path fill="#31302f" d="M1258 938h2v40h34v2h-34v35h-2v-35h-38v161h-2V978h40z"/><path fill="#937446" d="M974 327h40v1h-38l1 30 2 75v5l1 6h30v-20l4-2v26h-40z"/><path fill="#866d45" d="M2887 204h41v1h-39v122h40v39h-42zm32 124 1 1-3 1h-20q-3 0-5 2-3 5-2 11v4l-1 4v14h39v-37z"/><path fill="#9e7c4d" d="M2645 245h40v82h-40zm6 4q-7 21-4 44v30h34l2-11v-65h-13q-10 0-19 2"/><path fill="#3c2713" d="M1097 611h6v17l-1 6v4l1 9h26l7 1 1-37h40v2h-38v38h38v2h-58l-4-1-18-1z"/><path fill="#d4b378" d="M2055 768h27l7 1 6 1h18v4h-120v-2q30-4 62-4"/><path fill="#41270d" d="M2968 245h37q-3 4-8 4h-21l-1 21v37q1 11-5 20h-2z"/><path fill="#987651" d="m2806 814 1 2h10l-2 4q-3 5-3 11v19h31v-32h-22v-2h24v40h-39z"/><path fill="#9a784b" d="M2724 653h40v39h-25q5-5 11-4c6 0 6 0 10-2v-29h-21l-3 1h-3q-3 5-2 10v24h-7z"/><path fill="#432f17" d="M2562 735h2v37h2v13l1 4v6l3 14q13 1 26-2l5-1v-4l1-44v-23h1v79h-41z"/><path fill="#aa8553" d="M2806 40h39v2h-37v119h39v84h-2v-82h-39z"/><path fill="#96764a" d="M814 203h39v82h-2v-50h-2l-2-26h-17l-3 1h-4l-4 1q-4 7-4 15v59h-1z"/><path fill="#917047" d="m1869 285 6 2v9l-1 10v7l-1 10 3-1q14-2 28 0v-3l1-10v-6l1-3 1-9h-4l1-5 7-1v42h-42z"/><path fill="#a68150" d="M732 450h160l-4 3-5 4v-3h-49q-51 1-102-2z"/><path fill="#544022" d="M724 368h6l2 20v60h-2v-40h-39v-37c7 7 6 22 6 31l9 1 4 1h16v-22l-1-3z"/><path fill="#a27e4e" d="M2806 530h39v39h-39zm4 7-1 12v10l4 7h25q2 1 3-2l1-6v-6l1-7v-10c-2-3-9-2-12-2h-3c-10-1-10-1-18 4"/><path fill="#876749" d="M489 654h27v1h-2l-8 1-3 1h-3l-2 1-3 1v68q3 3 8 2h7l20 2v2h-41z"/><path fill="#c7a972" d="M609 448h40v2h-38l2 17v39l2 19h3l3-1h26v5l2 1h-40z"/><path fill="#a98651" d="M2480 897v41h-39v-38l4 2v30h29l1-16 1-18z"/><path fill="#ba9c66" d="M2562 693h41v40h-41zm4 4v34h25q5 0 8-4l1-7v-8l-1-15z"/><path fill="#322410" d="M2645 611h40v40l-4-2h2l-1-2v-11l-1-3v-16l-28 1-3 13v7l-1 3v8h12v2h-16z"/><path fill="#4b331f" d="M1992 856h162v1h-161v365h-1z"/><path fill="#8c6b4b" d="M1139 654h38v79h-40v-2l13-1h4l4-1h3l11-2 1-43v-3c0-12 0-12-4-23h-6l-3-1h-13l-8-2z"/><path fill="#543a28" d="M2439 774h2v81h38v-41h1v42h-39v122h-2V857h-40v-1h40z"/><path fill="#bfa068" d="M1097 285h2l1 12v4l1 6v14l29-1 1-19v-3l1-4 1-9h4v42h-40z"/><path fill="#694f32" d="M42 0h486v39h-1V1z"/><path fill="#caa96c" d="M1788 1224h41v40h-41zm29 3-17 1h-5l-3 1-1 14v10q0 4 2 7h30c4-8 4-8 5-15v-7l-1-12z"/><path fill="#99784a" d="M2929 245h39v82h-39zm10 2v4l-5 1-2 5-1 3q-3 21-1 42v24h37a420 420 0 0 0-2-61v-2l1-16h-2q-12 2-25 0"/><path fill="#554322" d="M2724 448h82v40q-5-4-4-10v-24h-30c-39-1-39-1-48-4z"/><path fill="#93764d" d="M732 121h40v40h-2v-2l-4-34-2 1-8 2h-6l-10-1v3l-3 21-1 2-2 8h-2z"/><path fill="#a47f4e" d="M3010 163h28v2q-14 5-26 0v2l1 9 1 8v15h32l-1-7-1-6v-19h-2l-1-4h9v39h-40z"/><path fill="#d7b477" d="M2359 1101h40l-1 8-2 1-1-4h-28c-3 7-3 7-3 14v15q11 2 20 0h13v6h-38z"/><path fill="#523e24" d="M895 245h40v80l-4-2 1-73h-2q-18 2-35-1z"/><path fill="#504532" d="M1992 488h244v2h-244z"/><path fill="#936f3d" d="M163 530v487h-1z"/><path fill="#3b2209" d="M2847 121h82v82h-2v-80l-13 2h-3l-39 3h-3q-10 0-21-4z"/><path fill="#c2a36c" d="M2889 205h40v40h-40zm4 6q-4 7-2 16v3c-1 6-1 6 2 11h32v-34c-17-1-17-1-32 4"/><path fill="#5d4624" d="M651 448h39v42h-1l-1-2v-11l-1-3v-7l-2-12h-29l-1 15-2 20h-2z"/><path fill="#caa96b" d="M690 938h40v40h-40zm2 4q-1 16 2 32h27q3 1 5-2v-26l-2-6-6-1h-12c-7 0-7 0-14 3"/><path fill="#967246" d="M2562 1019h83v1l-77 1v35l-1 3h74v2h-79z"/><path fill="#322513" d="M1790 1264h59c-6 5-6 5-11 6h-18l-7 1h-15q-4 6-4 14v19h-4z"/><path fill="#a38050" d="M569 611h2l1 3 1 20v4l2 9 15-1h6l7-1v-2l1-30-2-2h7v40h-40z"/><path fill="#9d7b4e" d="M2847 82h2v37l74-4V95l3-7h2v33h-81z"/><path fill="#a78651" d="M1426 121h36v81l-4-1v-72l-20-4-4-2-8-1z"/><path fill="#534121" d="M772 121h40v4q-18 4-34 2l-3 33v16l-1 27h-2z"/><path fill="#826b4f" d="M1991 490h1v245h-2V572z"/><path fill="#291c0c" d="M2564 735h38v27l-1 44h-2l-1-20v-18l1-31-13 1h-11l-6 3q-2 4-2 9v12l-1 10h-2z"/><path fill="#c3a267" d="M2318 1183h39v39h-39zm14 1-1 2-8 3v29l17 2h6l10 1v-37z"/><path fill="#a8834f" d="m815 219 2 28v32l28 2 3-24 1-22h2v50h-36z"/><path fill="#47331a" d="M2603 693h42v40h-42zm1 2v37h20l15-3 2-32-29-1v-1z"/><path fill="#d2b37e" d="M2522 735h40v39h-2v-37l-4 1-26 1-2 22v13h-6z"/><path fill="#a37d4b" d="M1748 367h432v1h-432z"/><path fill="#9d7c50" d="M3091 938h40v40h-4v-3l-1-10v-11l-1-4q1-4-2-7h-9l-3-1q-8 0-15 4l-1 12h-3v20h-1z"/><path fill="#341c07" d="M2889 368h38v2q-4 3-9 2l-23 1-1 9v42l-1 5v9q1 3-4 7z"/><path fill="#ae874c" d="M2155 368h16q7-1 15 3-3 3-7 3h-2l-1-3-3 2-14 1v28h18c17 0 17 0 21 2v2h-43z"/><path fill="#4e3e1c" d="M2847 327h40v39h-40zm6 3a36 36 0 0 0 0 34h16l6 1h4q3 1 6-3v-32z"/><path fill="#d0b278" d="M42 42h39l-2 6H48l-2 34h-4z"/><path fill="#3c220a" d="M407 121h103v2c-42 5-42 5-63 5h-2c-11 0-11 0-16-3v-2h-22z"/><path fill="#a78250" d="M2522 978h40v39h-40zm4 4q-5 13 0 28 1 4 5 5l6 1h8l15-1v-33z"/><path fill="#6d523b" d="M1706 1264h2v40h2l1 13v4l1 6v15l8-1h2l9-3q8-1 15 2l1 4h-41z"/><path fill="#2f2113" d="M647 571h2v121h-10l1-2c7-13 5-34 5-48z"/><path fill="#634b31" d="M649 490h2v41h5v1h-5v123l-2-1V532h-40v-2h40z"/><path fill="#d0b073" d="M2399 938h40v40h-40zm2 2v26l2 8h32l2-33q-2-3-5-1z"/><path fill="#a28255" d="M2319 571h38v2l-19 2-12 2q-4 9-3 18v7l-1 35-1 3v6l-2 5z"/><path fill="#392007" d="M2522 938h39q-14 8-29 6l-4-1q-3 4-3 10v8l-1 4v11l4-1q8-3 18-2h9q3 0 6 5h-39z"/><path fill="#6c5332" d="M2845 530h2v39h40v2h-40v80h-2v-80h-39v-2h39z"/><path fill="#6f5635" d="M893 327h2v79h40v2h-40v40h-2v-40h-40v-2h40z"/><path fill="#aa8652" d="M2645 531h14v3l-8 2v10c0 9-2 14-4 23h36v-37h-10v-1h12v40h-40z"/><path fill="#594622" d="M814 82h39v39l-2-8-1-2v-6l-1-19-28 1-4 13v4l-1 7 3 3-2 4-1 2-1 1h-1z"/><path fill="#321b06" d="m2604 143 3 1v2l1 9 1 30v10q14 5 29 2h7v5h-41z"/><path fill="#332c29" d="M2601 938h2v40h82v2h-82v33h-2v-33h-37v-2h37z"/><path fill="#d0ac6d" d="M1748 1264h40v40l-6-2 2-34-4 1-16 1q-9-1-16 5z"/><path fill="#8f6f47" d="M2357 82h2v39h-79v-2h3l17-1 21-2h20l14 1z"/><path fill="#a58355" d="M2155 898h4l1 12v4l1 20h1q18-3 34-2v6h-41z"/><path fill="#574423" d="M2970 161h2v37h20l12-1v-26l2-10h2v42h-38z"/><path fill="#a17d53" d="M2566 1020h79v41h-4v-38h-37l-12 1h-4q-12 0-22-3z"/><path fill="#cbb17a" d="m2645 571 4 2 1 9v3l1 22h2l30 2v-38h2v40h-40z"/><path fill="#9d7a4b" d="M2847 856h40v42h-40v-40h2l1 12v4l1 6v14h34v-37h-38z"/><path fill="#a68250" d="M2687 327h37v38l-4-1 1-10v-3l1-21-22 1h-4l-4 1-1 6v4l-1 4-1 20h-2z"/><path fill="#664c34" d="M1952 814h88v2l-12 1h-30l-3 1h-29l-9 2-1 8v10l-1 5-1 13h-2z"/><path fill="#9f7d4f" d="M2970 774h38v40h-38zm4 6-1 9v3l-1 20h27l7-1v-33c-17-3-17-3-32 2"/><path fill="#745b36" d="M567 571h2v80h40v2h-40v40h-1v-40h-40v-2h39z"/><path fill="#402f1e" d="M2806 696q5 8 5 18v46q0 8 3 14h-8z"/><path fill="#95744a" d="M3050 121h39v40h-39zm4 6c-3 17-3 17 0 32h33v-36h-14q-11 0-19 4"/><path fill="#846644" d="M2318 1141h39v14h-2v-12l-12 2h-3l-4 1h-3l-9 3-1 13-1 6v6l-2 6 3 2-5 1z"/><path fill="#372917" d="M2846 653h41v54h-2l-2-38h-2v-12h-27l-8-2z"/><path fill="#c4a56d" d="M2603 611h40v42h-40zm1 2v38h37v-34c-5-2-5-2-11-2h-5l-3-1-10 1z"/><path fill="#8f6f45" d="M2562 121h40v26h-1l-2-12-1-2v-3l-1-5h-11l-22-2v80h5l-1 2h-6z"/><path fill="#3c2614" d="M2766 774h40v82h-42v-1h41l-1-20v-14l-1-13q-2-13-1-28l-36-4z"/><path fill="#9e7a4a" d="M2278 490h40v40h-40zm3 3-2 6v9c0 11 0 11 5 20h27l5-1v-33q-11-3-21-3h-10z"/><path fill="#a48153" d="M42 1061h2l1 12 3 24 3-1q14-3 26 1v-4h4v8H42z"/><path fill="#372811" d="M2930 938q6 7 4 17v10l1 36v3l-1 14-5 1z"/><path fill="#150601" d="M881 408h12v40h-62v-2l22-1h18l3-1h6q3 0 7-3 2-7 1-13l3-18h-10z"/><path fill="#c3aa71" d="M2847 285h2v38l18-2h18v-36h2v42h-40z"/><path fill="#3a210b" d="M2603 121h81q-7 6-16 5l-21-1v-2h-43v79h41v1h-42z"/><path fill="#a78151" d="M1054 448v81h-38v-38h1l2 35 22-1h4q3 1 5-2l1-13v-23l1-30v-3z"/><path fill="#4f3d1e" d="M2808 408h37v40h-37zm2 2-1 16v13q-1 3 3 5 12 4 24 1l7-3v-32z"/><path fill="#8e704b" d="M3131 978h40v39l-5-3 1-30-13-1-12-2-10-1v37h-1z"/><path fill="#4d3b1d" d="M732 245h20l1 2 6 2v1l-23-1v2l-1 50v7l-1 17 2 1h-4z"/><path fill="#8d6d42" d="M2318 978v40h80v1h-80v42h-1v-42h-40v42h-2v-44h42z"/><path fill="#896940" d="M2602 121h1v82h42v2h-41v40h-1v-40h-35l1-2h32v-30z"/><path fill="#67421b" d="M2603 653v40h-41q11-6 23-4h12v-2l1-19v-3q0-6 2-11z"/><path fill="#674220" d="M1056 448v41l3 1v36l17-1h7l7 3 6 1v1h-41z"/><path fill="#d2b57c" d="M2645 42h40v40h-40v-4h36l2-34h-38z"/><path fill="#9c7b50" d="M2847 571h40v38h-2v-13l-1-4v-10l-1-9h-34v26l1 28v15q0 3 2 5l2 1-7 3z"/><path fill="#a58252" d="M895 408h40v20h-2l-2-7v-7l-19-1h-8l-4 1-1 4v9l-1 8v2l-1 11h-2z"/><path fill="#a47f52" d="M972 571h2v40h-37l3-34v30h14q8 0 15-4l2-11v-7l1-4z"/><path fill="#7a5d38" d="M2276 448h2v40h40v2h-40v40h-2v-40h-40v-2h40z"/><path fill="#755033" d="M1871 1063v161h-2v-157q0-5 2-4"/><path fill="#42342c" d="M649 898h2v40h37q-5 5-12 4h-9c-7 0-7 0-12 3q-4 9-4 19v10h-2z"/><path fill="#31230e" d="M2482 857h40c0 17 0 17-4 21l-2-5v-2l-2-9h-20l-10-2v22h-2z"/><path fill="#7d5f46" d="M732 774h40l-2 4-2 1h-13l-17 1v3l-2 20v2l-2 9h-2z"/><path fill="#d0b072" d="M1260 1019h40v2l-13 2h-21v3l-1 27v2l2 4h-7z"/><path fill="#c9ad7c" d="M2156 653h40v2q-4 3-9 2l-11 2q-8 1-15-2v3l-1 21v3l-1 9h-3z"/><path fill="#3e260d" d="M2562 856h41l-3 2-1 1c-11 6-25 1-35-1v80h-2z"/><path fill="#3a3736" d="M2562 448h2v40h15v2h-15v39h39v1h-41v-40h-40v-2h40z"/><path fill="#97764e" d="M3050 898h39v40h-39zm2 2-1 17v11l1 6q6 3 15 2h13q5 0 7-3l1-8v-9l-1-16z"/><path fill="#36260c" d="m772 816 2 1v17h2v70h-4z"/><path fill="#9b774d" d="M2930 694h37v38h-5l2-1v-30l-14-2h-17v4h-3z"/><path fill="#8c6f47" d="M2441 203h39v42h-1l-1-38-1 1h-12l-7 1h-7l-6 1-1 6h-2v29h-1z"/><path fill="#907146" d="M2399 161h40v42h-40v-1h25l1-3 10-2v-12l2-20h-3l-35-2z"/><path fill="#a07e53" d="M1708 1264h40l-2 4q-9 3-19 2h-5l-9 2-3 32h-2z"/><path fill="#40301e" d="M2887 856h4v3l1 12v12l1 2 1 8 11 1 9 1h4l11 1v2h-42z"/><path fill="#9c7745" d="M2845 1019h2v82h-41v-40h1v38h16v-2l22 2z"/><path fill="#97754e" d="M2919 328h9v37h-38l1-3 11-1h8l13-1v-13l2-17z"/><path fill="#d5b071" d="M2279 1020h38v33c-4-3-4-3-4-8v-3l-1-3v-8l-2-8-27 1-1 17-1 3v3l-2 4z"/><path fill="#a88452" d="M2885 609h2v42h-39q10-6 22-4l2-1h3q3 0 5-3l4-21z"/><path fill="#98754b" d="m2766 733 1 2h8l-2 2q-4 7-3 15v18l2-1h11l8 1h8l-3 4-7 1h-8l-15-1z"/><path fill="#2f2211" d="M2887 1020h32q-4 3-8 3h-2l-5 1h-2l-2 1-6 3-1 7v24h-4v-2l-1-7-1-4z"/><path fill="#392811" d="M2522 816h40v40h-22v-1h3l5-1h2c5 0 5 0 9-3v-21l1-12-17 1h-9q-4 0-7 3h-3v33h5v1h-7z"/><path fill="#40250b" d="M2564 448h39v40h-4l-1-12v-3l-1-21h-4l-29-2z"/><path fill="#9a794f" d="M690 245h34v2h-2l-8 1h-9l-8 3-3 34h-4z"/><path fill="#2d2110" d="M121 1020h42v1l-3 1-10 1h-4c-9 1-9 1-17 5q-5 9-4 20v11h-4z"/><path fill="#291b13" d="M1992 490h48v1h-47v241h-1z"/><path fill="#574324" d="M3050 121v40h-42v-2l36-2 1-25v-6q0-5 5-5"/><path fill="#3f2e1b" d="M1056 653h41v40h-32q5-4 11-4l2-1h11q4-10 5-20l1-14h-39z"/><path fill="#9d7a4e" d="M2687 611h37v13h-2v-9l-9 1h-3q-8 0-15 2c-8 9-7 22-7 33h-1z"/><path fill="#3f2810" d="M3050 161h39v2h-35v24h4l-2 16h-6z"/><path fill="#9f7e53" d="M3189 1019h63v42h-10l2-2q3-11 3-24v-5l1-9-59-1z"/><path fill="#523310" d="M1786 1224h2v40h-40c4-4 4-4 8-4h28v-17q-1-9 2-19"/><path fill="#997548" d="M2319 978h40l-2 4h-5l-2 1h-7l-22 1 1 2q0 16-3 31z"/><path fill="#6d5d4d" d="M1706 327h2v39h40v2h-40v38h-1v-38h-40v-2h39z"/><path fill="#95754a" d="M3171 1019h18v2l-12 2v36l-6 2z"/><path fill="#97764b" d="M2887 653h42v40h-1v-39h-38l1 14v21l18 2v2h-22z"/><path fill="#9f7d4e" d="m2399 163 31 1q-4 3-9 3h-12l-3 1-1 6v7l-1 8-1 12h20v1h-24z"/><path fill="#b0945d" d="m812 42 41 1v1h-39v36h39v2h-39v39h-2z"/><path fill="#c69e61" d="M2317 1019v42h-40c0-6 0-6 2-9l1-2 1 2q4 4 11 3h9l2 1h5l7-4v-21z"/><path fill="#a07d53" d="M3010 816h40v39h-7q-2-3 0-7l3-30h-36z"/><path fill="#99784a" d="M2154 735v39h-40v-4l2 1h14c9 0 9 0 17-4q4-10 5-21v-3z"/><path fill="#5e4826" d="M2645 327h40v41h-2l-1-2v-14l-3-23-4 1-4 1h-3q-9 3-18 0l-2-1z"/><path fill="#b0895a" d="M2522 774h2l1 12v10l-1 16h3l3-1h3l9-1v2h18l-1-7v-20l-1-2 1-6 3-3v40h-40z"/><path fill="#97774b" d="M935 245h2l1 76 8 1h3l12 1h3l10 2v2h-39z"/><path fill="#a98252" d="M2890 654h38v38h-6v-24l1-11h-3l-29-2v6h-1z"/><path fill="#5a3916" d="M728 898h2v40h-39l1-4c12-5 24-2 36 0z"/><path fill="#a47f4d" d="M770 204h2v41h-40l1-10 2-1 1 7 2-1q16-3 32 3z"/><path fill="#9b7a50" d="M1708 368h40l-2 4h-2l-12 1h-11q-4 0-8 3l-1 4v9l-1 4v3l-1 9h-2z"/><path fill="#a78250" d="M2397 123h2v38h-40v-20h2v18h5l6-1h4l19-1v-15z"/><path fill="#98774b" d="M2603 82h2c4 29 4 29 1 34l39 3v2h-42z"/><path fill="#2a1605" d="M1993 491h47v1l-42 2v15q1 10-3 20l-2 1z"/><path fill="#2f1b03" d="m1877 360 15 2h50l6 3h-79q2-5 8-5"/><path fill="#a78350" d="M2034 1256v8h-41v-7h30z"/><path fill="#d4b272" d="M2925 978h2l1 15v24h-41v-2l11-1h3l22-1v-2z"/><path fill="#9a794f" d="M937 245h37v44h-2v-42c-16 0-16 0-32 7l-1 7v2h-2z"/><path fill="#2e210e" d="M2319 1224h40v2l-13 2-5 1-6 1h-14l1 3 1 8v16l-2 7h-2z"/><path fill="#816444" d="M2522 856h40q-9 6-19 6-8 0-14 2l-3 5-2 5h-2z"/><path fill="#705f48" d="M730 611h2v40h40v2h-82v-2h40z"/><path fill="#6d5239" d="M1097 40h245v1z"/><path fill="#31210f" d="M2522 1019h40v40h-6v-2l1-23 1-13h-36z"/><path fill="#351e07" d="M2158 938h43c-5 6-5 6-8 7h-15q-11 1-20-6z"/><path fill="#96754a" d="M2601 408h2v40h-35v-2l14-1 4-1h11z"/><path fill="#896239" d="M1177 653h2v82h-42v-2h40z"/><path fill="#504023" d="M2890 259q4 12 3 25v39h22v2l-25 1z"/><path fill="#554326" d="M1992 733h121l-4 2h-117z"/><path fill="#b38947" d="M2806 245h2v82h37v1h-37v38h-1q-2-39-1-80z"/><path fill="#8d6f49" d="M2332 1181h27v43h-41v-2h39v-39h-38v-1q6-2 13-1"/><path fill="#3e2f22" d="M772 814h40l-1 18v3l-1 13h-2l-2-11v-19h-8l-8-1h-12l-6-1z"/><path fill="#341c05" d="M2930 328h38v2q-4 3-8 2h-4l-7-1h-6l-10 1v30l-3 1z"/><path fill="#79644b" d="m730 655 2 1v79h-42v-2h40z"/><path fill="#39210a" d="M2847 448h40v4l-17 2h-3l-14 1-3 5c-2-2-2-2-3-12"/><path fill="#745940" d="M2480 938h2l2 9v2l1 4v7l1 16 2-1q5-2 10-1h4l10 2v2h-32z"/><path fill="#a27f4e" d="M2604 205h39l-1 2-5 1h-10q-10 0-18 4-2 8-1 16v10q0 3 2 5h-6z"/><path fill="#674c37" d="M1258 1017v44h3l1 10v20l-1 9 3 1h-7z"/><path fill="#2c1803" d="M367 918h2l2 31v6c1 16 1 16-4 23h-1v-56z"/><path fill="#b58d50" d="M732 203h40l-2 1v39l-8-1 2-2q4-2 4-8v-27h-34l-1 38h-1z"/><path fill="#d0b177" d="M2847 980h40v2h-2l-12 1c-11 0-11 0-20 5q-3 6-3 13v9l-1 7h-2z"/><path fill="#89653d" d="M365 978h42v2h-3l-16 3-16 1-3 1q-3 4-2 9v2l-1 21h-1z"/><path fill="#130601" d="M1748 1017q7 4 7 7l-1 3v6l-1 6v3l1 4q0 9-2 17l-4 2z"/><path fill="#94744e" d="M2481 285h1v40l12-3 9-2h7l6 1 2-12h2v17h-39z"/><path fill="#a38053" d="M2807 1061h3q3 10 2 21v3l1 8 2 1h2l3 1 2 1 1 3h-16z"/><path fill="#251203" d="M407 123h22c-3 3-3 3-18 6v32l-4 2z"/><path fill="#d2b579" d="M2807 1020h15v2h11v1l-7 1h-2l-10 3-2 5v4l-1 2-1 8-2 15h-1z"/><path fill="#3a291a" d="M1423 978h39v2h-2l-21 1h-4l-7 3q-2 5-2 11v8l-1 4v10h-2z"/><path fill="#97784c" d="M2542 327h20v39h-40v-16h2v14h27c4 0 4 0 8-3v-21l1-11h-18z"/><path fill="#987648" d="M2359 121h40v2l-3 1-10 2h-4l-7 1-4 1-8 1-2 12h-2z"/><path fill="#5c3b16" d="M2437 898h2v40h-40v-2l23-2h4l9-2v-14z"/><path fill="#a38050" d="M927 163h8v38l-4 2q-3-14-3-29v-5z"/><path fill="#392a16" d="M734 938h38c-6 6-6 6-12 6h-19l-7 2z"/><path fill="#563410" d="M2395 944h2v34h-36v-2l11-2h3l7-1h6l4-1 1-7v-3l1-4z"/><path fill="#644b31" d="m324 121 6 1-1 3q-2 8-2 17v11l-1 30v3l-3 5v-65z"/><path fill="#41301b" d="m690 978 2 4 5 2v16c0 14 0 14-6 19h-1z"/><path fill="#644b2a" d="M2154 693v40h41v1h-40v40h-1v-39h-44l6-3h8l9 1h20z"/><path fill="#322515" d="M1462 571h10l-1 3q-4 6-3 13v3l-1 6v4l-1 11h-4z"/><path fill="#a8804f" d="M2564 408h15v2l-4 2-3 1-4 1v34h-4z"/><path fill="#40332d" d="M690 203h39v1h-5l-2 1-6 2-7 1q-9 1-17 6v20l-1 11h-1z"/><path fill="#937448" d="M649 654q8 12 6 25v14h-6z"/><path fill="#341c06" d="M45 1101h44v2c-14 3-28 7-42 2z"/><path fill="#9b7549" d="M2564 816h37v2l-20 2h-5l-7 2-3 24h-2z"/><path fill="#261304" d="M2604 123h43v2l-12 1-4 1h-22l-2 17-3-1z"/><path fill="#2b1e17" d="M1667 1224v161h36v1h-37z"/><path fill="#aa8551" d="M2966 307h1v19h-37v-12l3 9 12-1 4-1h6l8-2q2-3 2-7l1-3z"/><path fill="#917c5f" d="M40 0h2a203 203 0 0 1 1 42q-6 2-11 1L0 42v-2h40z"/><path fill="#2d2112" d="M2524 822h2q3 10 2 21v9h23q-8 6-20 4l-7-1z"/><path fill="#977648" d="m2401 1244 4 4-2 8h4v4h2l8 1h2l18 1v2h-38z"/><path fill="#714b20" d="M935 694h38l-1 3-10 1h-8q-11 0-19 8z"/><path fill="#564220" d="M1925 408h27q-3 6-6 6h-19l-1-3-3 2h-6l-3-4z"/><path fill="#b89259" d="m1423 121 16 2q-4 5-10 5l-3 24-1 4v9h-2z"/><path fill="#291605" d="M2399 1264h37c-7 7-15 6-24 6h-2q-5 1-11-2z"/><path fill="#d7b880" d="M691 285h3l2 12v4l2 25h-7z"/><path fill="#321c06" d="M3204 1101h46l-2 6h-2l-14-3-2 3-26-4z"/><path fill="#af8954" d="M3189 1020h61q-4 4-9 3l-8 1-21 3v-4h-3l-20-2z"/><path fill="#d1b882" d="m2604 613 5 2v36h-5z"/><path fill="#513e25" d="M856 121h37l-4 8-5-2h-22l-1-4-5-1z"/><path fill="#93764e" d="M935 571h9l-1 3q-3 5-4 11l-1 21-1 5h-2z"/><path fill="#94724b" d="M1974 490h17v40l-5-2 1-13v-3c0-17 0-17 2-19l-15-1z"/><path fill="#5a3712" d="M2316 987v30h-35v-2h2l11-1h11l7-3v-17z"/><path fill="#ad814a" d="M1058 531h24l-4 5h-14l-1 1-3 12h-2z"/><path fill="#554335" d="M3167 82h4v39l-4-2-1-27v-2z"/><path fill="#3a210c" d="M2603 816h42v1h-41l1 9h2q3 9 2 18l-4 6-1 6h-1z"/><path fill="#8c7154" d="M3170 42v40l-9-2 2-2V65l1-7h4V47z"/><path fill="#967446" d="M2236 448h40v2q-12 3-25 2c-6 0-6 0-11 3l-2 3-2 1z"/><path fill="#a6814f" d="M2722 624h2v27h-36v-16h1v14h29q3-8 3-17l1-3z"/><path fill="#3c2d17" d="M772 904h4c3 25 3 25-1 33l-3 1z"/><path fill="#977647" d="M932 237c2 2 2 2 3 8h-40v-2h2l20-3h4z"/><path fill="#533c2f" d="M609 408h26v2l-7 1h-2l-11 1-4 20h-2z"/><path fill="#a2845b" d="M772 42h40v2h-38v26h2l-2 12h-2z"/><path fill="#33240f" d="M2604 695h8l-4 2 1 34h18v1h-23z"/><path fill="#563a28" d="M2562 611h2v42h-42v-2h40z"/><path fill="#6a503c" d="M2397 611h2v40h-6v-4l1-21z"/><path fill="#8a6641" d="M1177 611h2v40h39v2h-41z"/><path fill="#a78150" d="M3127 111h2v10h-37l4-3 16-1q7 1 13-3z"/><path fill="#754d22" d="M1831 1224h15l-6 5q-5 3-5 8l-1 14v4l-1 9h-2z"/><path fill="#3c2c16" d="M2319 1019h80v1l-77 1-1 40h-2z"/><path fill="#8c6e47" d="M119 1021h2v40l-5-1v-16z"/><path fill="#755033" d="M1870 906h1v157h-1z"/><path fill="#ac8b57" d="M2967 123v79c-28 0-28 0-30-2h20q4 1 7-2 2-5 2-11v-62h-22v-1h9z"/><path fill="#a88251" d="M972 289h2v36h-7l-1-2h2v-4l1-4v-2l1-9 1-10z"/><path fill="#deb76c" d="M407 982h11l-3 1-3 4-1 7v21h-4z"/><path fill="#352611" d="M2322 1020h75q-4 4-9 3h-30l-25-1h-3l-8-1z"/><path fill="#d4b476" d="M1381 1011v6h-42v-2l13-1h3z"/><path fill="#281505" d="M2604 817h41v11h-2v-10l-3 1q-8 2-17 1-9 0-16 4l-3 3z"/><path fill="#514123" d="M891 323v3h-35l1-3q17-6 34 0"/><path fill="#a37e51" d="M2795 735h10v39h-9l3-4h3v-33z"/><path fill="#301b04" d="M1139 287h12q-3 4-5 3l-2 2-2 17-1 18h-2z"/><path fill="#382009" d="M2603 491h40v19h-2v-16l-4 1q-7 1-14-1l-13-1z"/><path fill="#5e3c17" d="M687 942h2v35l-4-1v-27q0-6 2-7"/><path fill="#c7a96b" d="M685 370h4v36h-2l-1-13-1-3z"/><path fill="#301c0b" d="m2564 858 6 1-1 5-1 10v4l-1 8v4l-1 8h-2z"/><path fill="#83603e" d="M2156 856h40v1h-28l-5 1q-5 6-4 15l-1 2v3l-1 20h-1z"/><path fill="#7f5427" d="M530 694h34q-3 4-7 3h-4q-13 0-23 6z"/><path fill="#140701" d="M1827 1197h1v24h-15l1-3 4-1q4-1 6-5l1-7 2-5z"/><path fill="#90704a" d="M164 938v2l1 10v3c1 13 1 13 7 25h-9z"/><path fill="#d6b775" d="m1099 44 11 1-2 1q-9 12-7 26l-1 4v38h-1z"/><path fill="#bfa778" d="M2806 1019h39v2q-3 2-7 2h-17l1-1v-2h-15v41h-1z"/><path fill="#9b733f" d="M2929 693h39v40h-39v-1h38v-38zv9h-1z"/><path fill="#5c4634" d="M1869 1224h2v40h-12l5-6h5z"/><path fill="#563f31" d="M2766 285v42h-2v-40h-40v-1l17-1z"/><path fill="#a98651" d="M2441 856h39v41h-1v-40h-37v43h-1z"/><path fill="#453121" d="M528 530h41v1zv80h-1z"/><path fill="#4d3d21" d="M2605 245h28v2c-16 5-16 5-24 3q-3-2-4-5"/><path fill="#957446" d="M2196 736q6 6 5 16v3q0 9-3 17h-2z"/><path fill="#291b13" d="M1992 732h121v1z"/><path fill="#574738" d="M488 653h40v1h-39v81h-1z"/><path fill="#6b4d2f" d="M2356 408h1v121h-1z"/><path fill="#684c3a" d="M125 1061h38l-1 2q-18 3-35 2z"/><path fill="#352416" d="M0 42v119z"/><path fill="#d8b16e" d="M1750 1300h20l10 2v2h-32z"/><path fill="#3a2f25" d="M529 531h37v1zv79h-1z"/><path fill="#9f7644" d="m1992 1224 7 3v3l-2 1-2 11v8l-1 4-1 10h-1z"/><path fill="#2c2218" d="M773 816h17l-1 3-5 1-5 2-3 12h-2z"/><path fill="#876444" d="M1177 279v6h-34v-2l20-2h5q3-2 9-2"/><path fill="#997542" d="M44 82h6q1 11-3 21l-3 1z"/><path fill="#a5814d" d="M774 44h6l-2 11v6l-1 3-1 6h-2z"/><path fill="#97784c" d="M2522 327h20l-10 3-7 4-2 11v5h-1z"/><path fill="#4d3b1d" d="m738 323 7-1h20l3 1 2 3h-34z"/><path fill="#5a4425" d="M752 245h20l-1 5q-10 1-19-3z"/><path fill="#100702" d="M1827 1169h1v22h-5v-16h4z"/><path fill="#a17e50" d="M3132 1012h2l1 2h34l1 3h-38z"/><path fill="#503526" d="M690 814h1v84h-1z"/><path fill="#574738" d="M488 611h1v42h-1zm-42 42h42v1h-42z"/><path fill="#a47840" d="M1055 448v82l-3-1h2z"/><path fill="#754d33" d="M1585 1017h82v1h-82z"/><path fill="#4b331f" d="M2154 856v82h-1z"/><path fill="#a37d4b" d="M2403 366h36v2h-42q2-2 6-2"/><path fill="#2a1b14" d="M1665 202h81v1h-81z"/><path fill="#40332d" d="M690 121h1v82h-1z"/><path fill="#997548" d="M2319 1017h80v1h-80z"/><path fill="#291c14" d="M2806 856v80h-1z"/><path fill="#563926" d="M2032 693h79v1z"/><path fill="#c8a46a" d="M2278 1019h39v1h-38v20l1 4v10l-2 1z"/><path fill="#6d5d4d" d="M1707 406h39v2h-39z"/><path fill="#5e4d35" d="M2806 327v77h-1z"/><path fill="#2d1f18" d="M2929 327h39v1zv35h-1z"/><path fill="#9b774d" d="M2931 729h24l7 3h-32z"/><path fill="#a17e50" d="m3132 980 13 1v1h-4q-2-2-4 1-5 8-4 18v11h-1z"/><path fill="#a88251" d="m938 321 11-1h10l7 3v1l-26-1z"/><path fill="#6a4623" d="M2907 694h17q-2 5-5 5l-8-1-2-1h-2z"/></svg>